<svg xmlns="http://www.w3.org/2000/svg" width="934" height="934">
  <path fill="#04d0a9" fill-rule="evenodd" d="M192.5 207a88 88 0 0 0-69.3 55.2c-10 24 5 49.6 20.3 34.8 3.4-3.3 4.9-3 3.5.5-1.7 4.5-4.8 6-12.3 6-9.2 0-10 1.7-3.4 8 10.2 9.7 21.2 10 47.2 1 54.3-19 65.8 7.7 44 102.5-13.3 57.3-15.7 78.2-12.5 107.5 3.4 31 25 75 36.2 73.3 2.5-.3 2.5-.4 1.2-11.5-1-9.6 2.5-9.3 5.1.5 12.8 47.4 82.7 93.2 116.7 76.4 16.8-8.2 16.8-17.3 0-40.5a331 331 0 0 1-15.3-22.9c-8.4-14.7-25.3-29.8-45.8-41-3.4-1.9-4-3.5-1.6-4.5 1.9-.7 27 13.6 42.9 24.3 11.2 7.7 13.8 8.6 15.2 5.6 2.5-5.3 1.1-99.5-1.6-106.6-2.1-5.6-10.8-2.2-34.6 13.8-22.1 14.9-25.7 15.5-36.1 6.1-15.2-13.6-16.1-37-4.4-118.5 6-41.3 6.5-47.6 6.6-72 0-70.3-38.9-107.8-102-98m95.5 14c0 1.7 6.9 8.6 7.7 7.7.4-.4-1.2-2.6-3.5-4.9-2.3-2.3-4.2-3.6-4.2-2.8m-107.8 17c-3 .4-6.4 5.8-5.7 9.1 2.2 9.4 15.9 8.2 15.9-1.4 0-5.6-4-8.7-10.2-7.8m400.3 203.3c-1.8 7.3 0 184.7 1.9 186.8 3 3.3 6.4 2.5 13.6-3 3.6-2.6 9-6.2 12.1-7.9 8-4.2 8-4.7 1.5-19.3-4.8-10.7-2.6-10.7 3.7.1 23.5 40.5 67 66.2 103.5 61.1 24.6-3.4 27.8-15.2 10.5-40.2-21.7-31.5-27.6-37.1-53-50.1-21.4-11-23.7-18-3.2-10.1a113.7 113.7 0 0 1 48.5 32.4c18.3 21.6 42.3-19.3 57.8-98.4 2-9.9 4.8-22.8 6.3-28.8 2.9-11.5 2.6-15.8-1-16.5-8.6-1.7-18.3 9.6-33.6 38.7-16.3 31.2-28.8 42.8-41.5 38.8-13.5-4.3-30.2-17.9-42.9-34.9-9.3-12.4-21.6-25-31.7-32-18.7-13.1-50.8-23.4-52.5-16.7M720.3 454c-5.6 2.3-5.2 7 1.2 14 5.8 6.2 6.5 7.8 7.6 18.1 2 20.1 8.5 16.5 22.6-12.6 5.8-12 5.1-14.4-4-14.5-1.4 0-5.6-1.1-9.2-2.5-7.6-2.8-15-3.9-18.2-2.5m73.4 62.8c-3.9 16.5-4 17.7-1.2 9.2 2.3-7 5-19.8 4.3-20.6-.2-.2-1.6 5-3.1 11.4m-570.8 74c-2.3 6 .6 31.7 5.1 45.4 7.6 22.8 25.5 29.6 27.3 10.4.6-6 1.5-8.4 6.6-17.4 3.4-5.9 1.2-9.2-12.9-19.2-3.5-2.5-10-8.4-14.3-13.3-8.7-9.4-10.2-10.2-11.8-6"/>
  <path fill="#048cab" fill-rule="evenodd" d="m436 26.6-15 1.5C119.4 56.3-63.2 385.7 70.5 660.5c134.7 277 510.6 333.5 718.8 108 246-266.5 89.2-694.4-271.3-740-11.8-1.6-73-3-82-1.9M191.6 186.5c-74 10.6-117.7 93.2-73 138 17.3 17.3 37.8 18.9 73.2 5.6 25.4-9.5 26.7 1 9.7 78.4-12.3 56-14 68.4-13.2 95.5.9 26.9 4.7 46.3 12.7 65 4 9.6 4 9.5 2.6 17.3-5.7 29.6 0 56.3 16.7 77.5 2.7 3.4 5.2 6.2 5.5 6.2.4 0 2 1.2 3.7 2.8 1.6 1.5 3.2 2.6 3.5 2.6.3-.1 1.6.3 3 1 13 5.5 32-3.7 36-17.8 1.9-6.2 3-6 14 2.3 60.8 45.6 115 27.7 104.2-34.4-4-22.7-5.4-150.3-1.8-158.7 3.5-8 8.8-1 24 31.7 22.8 48.9 26 53 45.3 58 25.3 6.5 41.7-2.6 55-30.7 16-33.7 34.4-69.6 36-70.2 6.8-2.6 8.7 8.4 7.8 45.9-2 91.8-.9 140.5 3.5 143.5.4.3 1.4 1.9 2.3 3.5 8.7 17.1 44.4 21.8 64.2 8.5 7.5-5 9-5 16.7.4 26.3 18.3 54.4 25.3 81.3 20.3a39.5 39.5 0 0 0 27.7-57.7c-4.9-9.4-5.6-6.8 6.1-20.6a168.4 168.4 0 0 0 25.2-45.4c.4-1.4 1.5-3.9 2.5-5.5s2-5 2.3-7.5c.3-2.5 2-8.8 3.7-14a139 139 0 0 0 4.6-20c.8-5.8 2.4-15 3.5-20.5 5.3-25.3 5.9-29.1 5.9-35.3-.1-24.4-28-34.7-47.1-17.5-4 3.6-4 3.6-13.2 1.2-29-7.6-48.2.8-49.4 21.6-1 14.9-7.3 18.2-18.3 9.5-10.1-8-10.5-10.2-10.8-69.8-.5-111.6-1.3-124.2-8.7-140C644 226.5 614.8 216 578 228c-21.9 7.3-30 15-42.4 40.4-46.8 95.5-65.7 132.7-67.4 132.4-2-.4-19.4-35-68.7-137.2-16.6-34.3-53.2-48.3-96.8-37-6.7 1.7-5 2.8-23.7-15.7-20-19.8-53.9-29.2-87.4-24.4"/>
</svg>
